<svg width="16" height="16" viewBox="0 0 16 16" fill="none" xmlns="http://www.w3.org/2000/svg">
<path d="M14.9512 14.0075C15.2543 14.0075 15.5 14.2483 15.5 14.5454C15.5 14.8177 15.2935 15.0428 15.0257 15.0784L14.9512 15.0833H9.22583C8.92274 15.0833 8.67705 14.8425 8.67705 14.5454C8.67705 14.2731 8.8835 14.048 9.15136 14.0124L9.22583 14.0075H14.9512ZM9.38269 1.68051C10.4217 0.662048 12.1069 0.662048 13.1459 1.68051L14.2245 2.73783C15.2635 3.75629 15.2635 5.4082 14.2245 6.42667L6.11717 14.3738C5.65359 14.8283 5.02506 15.0832 4.36901 15.0832H1.04878C0.740346 15.0832 0.492487 14.8342 0.500174 14.5319L0.583693 11.2479C0.600298 10.6272 0.859392 10.0354 1.30722 9.59645L9.38269 1.68051ZM8.755 3.81583L2.08332 10.3572C1.83438 10.6012 1.69012 10.9307 1.68089 11.2754L1.61121 14.007L4.36901 14.0074C4.69352 14.0074 5.00559 13.8954 5.2519 13.6931L5.34108 13.6131L12.0458 7.04083L8.755 3.81583ZM12.3698 2.44127C11.7594 1.84297 10.7691 1.84297 10.1588 2.44127L9.53167 3.055L12.8217 6.28L13.4484 5.66591C14.0249 5.10084 14.0569 4.2036 13.5445 3.60163L13.4484 3.49859L12.3698 2.44127Z" fill="#EA7C69"/>
</svg>
